<?xml version="1.0" standalone="no"?>
<!DOCTYPE svg PUBLIC "-//W3C//DTD SVG 20010904//EN"
 "http://www.w3.org/TR/2001/REC-SVG-20010904/DTD/svg10.dtd">
<svg version="1.0" xmlns="http://www.w3.org/2000/svg"
 width="500.000000pt" height="500.000000pt" viewBox="0 0 500.000000 500.000000"
 preserveAspectRatio="xMidYMid meet">
<metadata>
Created by potrace 1.11, written by Peter Selinger 2001-2013
</metadata>
<g transform="translate(0.000000,500.000000) scale(0.100000,-0.100000)"
fill="#000000" stroke="none">
<path d="M2049 4396 c-2 -2 -29 -6 -59 -10 -30 -3 -66 -8 -80 -11 -14 -2 -42
-7 -62 -9 -21 -3 -53 -7 -70 -10 -18 -3 -51 -8 -73 -11 -22 -3 -67 -10 -100
-15 -33 -5 -80 -12 -105 -15 -55 -8 -97 -14 -130 -20 -14 -2 -45 -7 -70 -10
-25 -4 -56 -8 -70 -10 -14 -2 -43 -7 -65 -9 -44 -6 -237 -34 -271 -40 -12 -3
-48 -8 -80 -12 -33 -4 -61 -8 -64 -9 -3 -1 -47 -7 -97 -15 -99 -14 -95 -10
-108 -85 -11 -64 -13 -78 -20 -120 -3 -22 -10 -65 -15 -95 -5 -30 -12 -68 -14
-85 -3 -16 -12 -73 -21 -125 -9 -52 -18 -107 -21 -122 -2 -16 -7 -43 -10 -60
-3 -18 -7 -44 -9 -58 -3 -22 -20 -126 -31 -185 -2 -11 -6 -36 -8 -55 -3 -19
-8 -46 -11 -60 -2 -14 -7 -40 -10 -57 -11 -73 -16 -99 -20 -113 -2 -8 -6 -37
-10 -65 -3 -27 -8 -57 -10 -65 -2 -8 -6 -33 -10 -55 -7 -49 -4 -29 -61 -375
-2 -14 -8 -50 -14 -80 -5 -30 -11 -68 -14 -85 -10 -68 -19 -121 -22 -140 -2
-11 -9 -49 -14 -85 -6 -36 -13 -76 -15 -90 -3 -14 -32 -189 -65 -390 -67 -404
-68 -405 -74 -440 -3 -14 -8 -43 -11 -65 -3 -22 -12 -78 -21 -124 -8 -46 -14
-85 -12 -87 2 -1 21 2 43 7 22 6 67 17 100 25 33 8 67 16 75 18 12 3 113 28
170 41 202 48 623 133 745 152 28 4 52 8 55 8 3 1 28 5 55 10 28 4 58 9 69 11
10 2 44 6 75 10 31 3 64 8 73 9 16 3 120 15 181 20 23 2 27 -1 22 -14 -4 -9
-31 -79 -60 -156 -29 -77 -57 -148 -60 -158 -7 -16 -3 -17 36 -12 24 3 55 7
69 10 14 2 49 7 79 10 30 4 61 8 70 10 9 1 41 6 71 10 30 3 66 8 80 10 14 2
48 6 75 10 28 3 77 10 110 15 33 5 80 12 105 14 45 6 140 19 150 21 3 1 32 5
65 9 l60 8 33 131 c19 73 35 139 37 147 2 8 18 69 35 134 18 66 33 127 35 135
2 9 13 52 25 96 18 66 38 144 74 285 2 8 9 35 16 60 7 25 13 52 15 60 2 8 15
60 30 115 14 55 44 170 66 255 22 85 52 198 66 250 14 52 27 102 29 110 2 8
20 78 40 155 20 77 38 147 40 155 2 8 16 65 32 125 16 61 39 151 52 200 12 50
27 95 33 100 7 7 8 7 4 0 -3 -6 -8 -40 -12 -75 -3 -36 -8 -81 -11 -101 -5 -41
-10 -85 -19 -179 -3 -36 -8 -76 -10 -90 -2 -14 -7 -54 -10 -90 -12 -132 -26
-258 -30 -282 -2 -9 -7 -57 -10 -105 -4 -48 -9 -90 -10 -93 -2 -3 -6 -39 -10
-80 -4 -41 -9 -86 -10 -100 -1 -14 -6 -59 -10 -100 -4 -41 -8 -77 -10 -80 -2
-3 -6 -45 -10 -95 -4 -49 -9 -97 -10 -105 -2 -8 -6 -44 -10 -80 -9 -91 -12
-122 -24 -230 -6 -52 -13 -122 -16 -155 -3 -33 -10 -94 -15 -135 -5 -41 -12
-102 -15 -135 -3 -33 -8 -76 -10 -95 -2 -19 -7 -62 -10 -95 -3 -33 -8 -78 -11
-100 -2 -22 -6 -60 -8 -85 -2 -25 -7 -71 -11 -103 l-7 -58 29 5 c15 2 53 8 83
11 30 4 62 9 70 10 8 2 51 8 95 15 44 6 96 14 115 17 19 3 55 8 79 12 52 7 38
-27 131 321 29 107 63 233 76 280 35 129 251 927 274 1015 4 17 20 75 35 130
44 161 85 314 107 400 19 73 44 130 33 76 -2 -12 -7 -61 -10 -109 -3 -48 -8
-98 -10 -112 -2 -14 -6 -68 -10 -120 -3 -52 -7 -106 -9 -120 -3 -14 -7 -70
-11 -125 -4 -55 -8 -112 -10 -126 -1 -14 -6 -68 -10 -120 -3 -52 -8 -110 -10
-129 -2 -19 -6 -73 -9 -120 -4 -47 -8 -101 -11 -120 -2 -19 -7 -75 -10 -125
-4 -49 -8 -106 -10 -125 -2 -19 -6 -73 -10 -120 -3 -47 -8 -103 -10 -125 -3
-22 -7 -69 -10 -105 -2 -36 -7 -93 -10 -127 -7 -74 -17 -71 140 -43 61 11 124
23 140 25 17 3 54 10 83 16 29 6 65 12 80 14 15 2 106 18 202 35 96 17 192 34
213 36 20 3 50 9 65 13 l27 7 1 339 c2 329 11 769 19 910 2 39 6 131 10 205 3
74 8 153 10 175 2 22 7 87 10 145 4 58 8 121 10 140 2 19 6 76 10 125 4 50 8
104 9 120 2 17 7 68 11 115 8 95 9 105 20 210 10 100 11 113 19 200 4 41 9 86
11 100 2 14 7 50 10 80 3 30 8 72 10 93 8 62 14 109 20 167 4 30 8 68 11 84 5
31 11 30 -82 12 -12 -2 -39 -7 -60 -11 -22 -3 -54 -8 -73 -11 -18 -3 -43 -8
-55 -10 -11 -2 -37 -7 -56 -10 -19 -3 -46 -7 -60 -10 -52 -9 -156 -26 -175
-29 -11 -2 -74 -13 -140 -25 -66 -11 -135 -23 -154 -26 -18 -3 -42 -7 -51 -9
-10 -2 -40 -7 -67 -11 -26 -5 -51 -9 -55 -10 -5 -1 -16 -2 -27 -3 -10 0 -21
-9 -24 -18 -11 -39 -151 -544 -177 -638 -15 -55 -57 -208 -94 -340 -37 -132
-69 -247 -71 -255 -2 -8 -20 -73 -39 -144 -20 -71 -36 -135 -36 -142 0 -7 -5
-16 -12 -20 -6 -4 -9 -3 -6 2 3 5 9 45 12 89 4 44 9 94 10 110 5 46 15 152 22
230 4 39 8 81 9 95 2 14 6 61 9 105 4 44 9 96 11 115 3 19 7 64 10 100 3 36 8
81 10 100 2 19 7 69 10 110 8 91 16 171 30 315 25 245 28 316 14 311 -8 -3
-32 -7 -54 -10 -22 -3 -63 -10 -91 -15 -28 -5 -71 -12 -95 -15 -24 -3 -55 -8
-69 -11 -14 -3 -41 -7 -60 -10 -19 -3 -132 -21 -250 -40 -268 -45 -236 -40
-365 -60 -60 -10 -113 -21 -117 -24 -4 -3 -30 -114 -58 -246 -82 -382 -217
-926 -301 -1210 -17 -55 -32 -107 -34 -115 -26 -98 -74 -252 -167 -540 -27
-85 -51 -159 -52 -165 -2 -5 -6 -17 -9 -25 -3 -8 -22 -62 -42 -120 -20 -58
-52 -153 -73 -212 -36 -107 -56 -138 -47 -75 2 17 7 69 10 115 6 102 14 220
20 292 12 162 17 260 12 260 -4 0 -361 -51 -452 -65 -22 -3 -67 -10 -100 -15
-33 -5 -85 -12 -115 -16 -30 -3 -73 -10 -95 -15 -22 -5 -55 -9 -73 -9 -27 0
-32 3 -28 18 4 16 7 30 21 102 3 14 10 54 16 89 5 35 14 85 20 111 l10 47 57
11 c31 6 89 18 127 26 39 8 81 17 95 20 14 3 36 7 50 10 50 11 357 68 421 78
36 5 71 13 76 16 6 4 14 66 18 137 4 72 8 146 10 165 2 19 6 82 10 140 3 58 8
126 10 153 5 58 13 57 -171 16 -292 -64 -326 -71 -357 -76 -18 -2 -57 -11 -87
-18 -31 -8 -72 -17 -93 -20 -41 -7 -40 -10 -22 75 3 14 8 39 10 56 2 17 21
100 41 185 20 85 38 164 41 176 6 24 38 31 253 58 30 4 63 9 72 10 9 2 48 7
85 10 37 4 75 9 83 10 19 3 151 18 285 30 39 4 71 8 71 9 2 1 14 156 29 371 3
44 7 110 10 148 3 37 7 100 10 140 3 39 8 102 11 140 l5 67 -34 0 c-18 0 -36
-2 -38 -4z"/>
</g>
</svg>
