<svg width="512" height="512" xmlns="http://www.w3.org/2000/svg">

 <g>
  <title>background</title>
  <rect fill="none" id="canvas_background" height="402" width="582" y="-1" x="-1"/>
 </g>
 <g>
  <title>Layer 1</title>
  <path fill="#ffffff" id="svg_1" d="m512,288l0,-64l-69.156,-11.531c-4.813,-20.781 -13,-40.188 -23.969,-57.781l40.781,-57.063l-45.25,-45.25l-57.094,40.75c-17.594,-10.938 -37,-19.156 -57.781,-24l-11.531,-69.125l-64,0l-11.531,69.125c-20.75,4.844 -40.188,13.063 -57.781,24l-57.094,-40.75l-45.25,45.25l40.781,57.063c-10.969,17.563 -19.156,37 -23.969,57.781l-69.156,11.531l0,64l69.156,11.531c4.813,20.781 13,40.188 23.969,57.781l-40.781,57.094l45.25,45.25l57.125,-40.781c17.563,10.969 37,19.156 57.75,23.969l11.531,69.156l64,0l11.531,-69.156c20.75,-4.813 40.188,-13 57.781,-23.969l57.094,40.781l45.25,-45.25l-40.781,-57.094c10.969,-17.594 19.156,-37.031 23.969,-57.781l69.156,-11.531zm-256,96c-70.688,0 -128,-57.313 -128,-128s57.313,-128 128,-128s128,57.313 128,128s-57.312,128 -128,128z"/>
 </g>
</svg>