<svg width="464.794" height="464.794" xmlns="http://www.w3.org/2000/svg">
 <g>
  <title>background</title>
  <rect x="-1" y="-1" width="466.794" height="466.794" id="canvas_background" fill="none"/>
 </g>

 <g>
  <title>Layer 1</title>
  <g id="svg_1">
   <g id="svg_2">
    <path d="m338.026,41.49l-211.249,0c-1.635,0 -2.963,1.328 -2.963,2.963l0,370.969c0,1.636 1.328,2.961 2.963,2.961l211.249,0c1.635,0 2.96,-1.325 2.96,-2.961l0,-370.969c0,-1.636 -1.325,-2.963 -2.96,-2.963zm-2.966,370.976l-205.32,0l0,-365.05l205.32,0l0,365.05z" id="svg_3" fill="#ffffff"/>
    <path d="m250.09,424.318l-35.244,0c-6.296,0 -11.423,4.799 -11.423,10.71s5.126,10.714 11.423,10.714l35.244,0c6.297,0 11.415,-4.803 11.415,-10.714s-5.118,-10.71 -11.415,-10.71zm0,15.509l-35.244,0c-3.034,0 -5.499,-2.153 -5.499,-4.789c0,-2.646 2.465,-4.788 5.499,-4.788l35.244,0c3.026,0 5.489,2.147 5.489,4.788c0.01,2.635 -2.457,4.789 -5.489,4.789z" id="svg_4" fill="#ffffff"/>
    <path d="m213.638,27.594l44.16,0c2.103,0 3.809,-1.707 3.809,-3.809c0,-2.1 -1.706,-3.806 -3.809,-3.806l-44.16,0c-2.103,0 -3.809,1.707 -3.809,3.806c0.001,2.095 1.707,3.809 3.809,3.809zm0,-5.639l44.16,0c1.011,0 1.833,0.82 1.833,1.831c0,1.013 -0.822,1.833 -1.833,1.833l-44.16,0c-1.011,0 -1.833,-0.82 -1.833,-1.833c0,-1.011 0.822,-1.831 1.833,-1.831z" id="svg_5" fill="#ffffff"/>
    <circle cx="216.458" cy="23.786" r="1.027" id="svg_6" fill="#ffffff"/>
    <circle cx="219.445" cy="23.786" r="1.027" id="svg_7" fill="#ffffff"/>
    <circle cx="222.446" cy="23.786" r="1.027" id="svg_8" fill="#ffffff"/>
    <circle cx="225.439" cy="23.786" r="1.027" id="svg_9" fill="#ffffff"/>
    <circle cx="228.435" cy="23.786" r="1.027" id="svg_10" fill="#ffffff"/>
    <circle cx="231.436" cy="23.786" r="1.027" id="svg_11" fill="#ffffff"/>
    <circle cx="234.43" cy="23.786" r="1.027" id="svg_12" fill="#ffffff"/>
    <circle cx="237.425" cy="23.786" r="1.027" id="svg_13" fill="#ffffff"/>
    <path d="m240.417,22.759c0.569,0 1.031,0.46 1.031,1.026c0,0.569 -0.462,1.028 -1.031,1.028c-0.563,0 -1.025,-0.459 -1.025,-1.028c-0.001,-0.566 0.461,-1.026 1.025,-1.026z" id="svg_14" fill="#ffffff"/>
    <circle cx="243.413" cy="23.786" r="1.027" id="svg_15" fill="#ffffff"/>
    <path d="m246.409,22.759c0.563,0 1.025,0.46 1.025,1.026c0,0.569 -0.462,1.028 -1.025,1.028c-0.569,0 -1.031,-0.459 -1.031,-1.028c-0.001,-0.566 0.461,-1.026 1.031,-1.026z" id="svg_16" fill="#ffffff"/>
    <path d="m249.4,22.759c0.568,0 1.03,0.46 1.03,1.026c0,0.569 -0.462,1.028 -1.03,1.028c-0.564,0 -1.026,-0.459 -1.026,-1.028c0,-0.566 0.461,-1.026 1.026,-1.026z" id="svg_17" fill="#ffffff"/>
    <path d="m252.396,22.759c0.568,0 1.025,0.46 1.025,1.026c0,0.569 -0.457,1.028 -1.025,1.028c-0.569,0 -1.026,-0.459 -1.026,-1.028c0,-0.566 0.457,-1.026 1.026,-1.026z" id="svg_18" fill="#ffffff"/>
    <path d="m255.397,22.759c0.568,0 1.025,0.46 1.025,1.026c0,0.569 -0.457,1.028 -1.025,1.028c-0.569,0 -1.026,-0.459 -1.026,-1.028c0,-0.566 0.457,-1.026 1.026,-1.026z" id="svg_19" fill="#ffffff"/>
    <circle cx="272.997" cy="22.75" r="3.145" id="svg_20" fill="#ffffff"/>
    <circle cx="282.945" cy="22.75" r="3.145" id="svg_21" fill="#ffffff"/>
    <path d="m311.919,18.524c2.904,0 5.256,2.354 5.256,5.253c0,2.902 -2.352,5.253 -5.256,5.253c-2.899,0 -5.25,-2.351 -5.25,-5.253c0,-2.899 2.351,-5.253 5.25,-5.253z" id="svg_22" fill="#ffffff"/>
    <path d="m172.841,429.269l-15.355,0c-0.482,0 -0.863,0.386 -0.863,0.863l0,7.932c0,0.473 0.381,0.858 0.863,0.858c0.472,0 0.853,-0.386 0.853,-0.858l0,-7.078l13.642,0l0,7.078c0,0.473 0.388,0.858 0.86,0.858c0.467,0 0.854,-0.386 0.854,-0.858l0,-7.932c0.007,-0.482 -0.379,-0.863 -0.854,-0.863z" id="svg_23" fill="#ffffff"/>
    <path d="m168.639,438.349l-7.094,0c-0.475,0 -0.853,0.386 -0.853,0.857c0,0.478 0.378,0.854 0.853,0.854l7.094,0c0.482,0 0.861,-0.376 0.861,-0.854c0,-0.471 -0.378,-0.857 -0.861,-0.857z" id="svg_24" fill="#ffffff"/>
    <path d="m168.639,441.801l-7.094,0c-0.475,0 -0.853,0.392 -0.853,0.858c0,0.473 0.378,0.863 0.853,0.863l7.094,0c0.482,0 0.861,-0.391 0.861,-0.863c0,-0.466 -0.378,-0.858 -0.861,-0.858z" id="svg_25" fill="#ffffff"/>
    <path d="m303.343,431.062l-5.911,0l0.173,-0.417l-3.006,1.27l3.006,1.274l-0.173,-0.411l5.911,0c1.792,0 3.244,1.407 3.244,3.144s-1.452,3.144 -3.244,3.144l-5.789,0c-0.482,0 -0.854,0.386 -0.854,0.853c0,0.478 0.376,0.863 0.854,0.863l5.789,0c2.731,0 4.951,-2.188 4.951,-4.864c0,-2.672 -2.219,-4.856 -4.951,-4.856z" id="svg_26" fill="#ffffff"/>
    <path d="m358.139,416.584l0,-368.371c0,-26.584 -21.632,-48.213 -48.215,-48.213l-155.053,0c-26.594,0 -48.215,21.629 -48.215,48.213l0,368.372c0,26.583 21.632,48.21 48.215,48.21l155.054,0c26.582,-0.001 48.214,-21.628 48.214,-48.211zm-48.215,36.364l-155.053,0c-20.051,0 -36.363,-16.315 -36.363,-36.363l0,-368.372c0,-20.05 16.312,-36.364 36.363,-36.364l155.054,0c20.048,0 36.363,16.313 36.363,36.364l0,368.372c0,20.047 -16.306,36.363 -36.364,36.363z" id="svg_27" fill="#ffffff"/>
   </g>
  </g>
  <g id="svg_28"/>
  <g id="svg_29"/>
  <g id="svg_30"/>
  <g id="svg_31"/>
  <g id="svg_32"/>
  <g id="svg_33"/>
  <g id="svg_34"/>
  <g id="svg_35"/>
  <g id="svg_36"/>
  <g id="svg_37"/>
  <g id="svg_38"/>
  <g id="svg_39"/>
  <g id="svg_40"/>
  <g id="svg_41"/>
  <g id="svg_42"/>
  <path stroke="null" d="m142.608704,33.913044c0,0 0.579697,0 1.159409,0c0.869568,0 1.739136,0 2.608704,0c1.44928,0 2.318832,0 3.1884,0c1.159424,0 2.028992,0 2.89856,0c0.869553,0 1.73912,0 2.608688,0c0.579712,0 0.869568,0 1.44928,0c0.289856,0 0.579712,0 1.159424,0c0,0 0.289856,0 0.289856,0c0,0 0.289841,0 0.289841,0c0,0 0,0 0,-0.289856c0,0 -0.0849,0.204948 -0.289841,0c-0.204956,-0.20496 0,-0.289856 0,-0.579708c0,-0.579712 0.200729,-0.633629 0.579697,-1.159422c0.47937,-0.665085 1.159424,-1.15942 1.739136,-1.73913c0.579712,-0.57971 0.869568,-0.869566 1.159424,-1.449276c0.289856,-0.57971 0.579712,-0.869564 0.869568,-1.15942c0,0 0,-0.289854 0,-0.289854l0,0l0,-0.289856" id="svg_43" fill-opacity="null" stroke-opacity="null" stroke-width="null" fill="none"/>
  <path id="svg_47" d="m132.17391,9.56522c0,0 84.05798,0 84.05797,0c0.00001,0 110.14493,0 110.14492,0c0.00001,0 14.20291,5.7971 15.94204,10.14493c1.73913,4.34782 -89.85507,1.44927 -89.85508,1.44927c0.00001,0 -128.69564,-0.57971 -128.69565,-0.57971c0.00001,0 8.4058,-11.01449 8.4058,-11.01449z" stroke-opacity="null" stroke-width="null" stroke="null" fill="#ffffff"/>
  <path id="svg_52" d="m114.72685,44.72711c13.63631,-25.99991 -5.81816,-15.45449 19.09084,-25.99991c24.909,-10.54541 78.54516,2.18181 78.36335,2c0.18181,0.18181 -1.63636,3.81816 -1.81818,3.63635c0.18182,0.18181 2.54545,2.18181 2.36363,1.99999c0.18182,0.18182 44.54529,0.36363 44.36347,0.18182c0.18182,0.18181 1.63636,17.09084 1.45454,16.90903c0.18182,0.18181 -141.81766,1.27272 -141.99948,1.0909c0.18182,0.18182 11.81814,-25.81809 -1.81817,0.18182z" fill-opacity="null" stroke-opacity="null" stroke-width="null" stroke="null" fill="#ffffff"/>
  <path id="svg_53" d="m256.666723,43.125009l-0.833342,-16.666671l4.166667,-1.25l-0.416667,-4.375001l76.875014,-1.041667l16.66667,22.708338l-96.458343,0.625002z" fill-opacity="null" stroke-opacity="null" stroke-width="null" stroke="null" fill="#ffffff"/>
  <rect id="svg_54" height="386.111125" width="13.888889" y="40.972224" x="113.299777" fill-opacity="null" stroke-opacity="null" stroke-width="null" stroke="null" fill="#ffffff"/>
  <rect id="svg_55" height="386.111125" width="13.888889" y="38.194446" x="338.299792" fill-opacity="null" stroke-opacity="null" stroke-width="null" stroke="null" fill="#ffffff"/>
  <path id="svg_56" d="m116.722404,413.712359l133.110367,0.668902l0.334448,12.374582l-40.133778,0.668896l-4.682274,7.023411l8.695652,7.357859l36.789297,0.334448l0,15.384615l-108.026753,0.334448l-23.745819,-17.725752l-2.341139,-26.42141z" fill-opacity="null" stroke-opacity="null" stroke-width="null" stroke="null" fill="#ffffff"/>
  <path id="svg_57" d="m243.945708,416.264804l105.882801,-0.00002l-4.152267,24.913603l-29.06587,16.263046l-41.176649,0l-30.795982,0.692045l-1.384089,-15.571002l11.072712,-0.692045l5.190334,-7.266468l-11.072712,-7.958512l-4.498278,-10.380648z" fill-opacity="null" stroke-opacity="null" stroke-width="null" stroke="null" fill="#ffffff"/>
 </g>
</svg>