<svg width="512" height="512" xmlns="http://www.w3.org/2000/svg">
 <g>
  <title>background</title>
  <rect fill="none" id="canvas_background" height="514" width="514" y="-1" x="-1"/>
 </g>

 <g>
  <title>Layer 1</title>
  <text id="svg_2" font-size="20" font-family="'Verdana'" fill="#FFFF00" transform="matrix(1,0,0,1,9.1931,567.8093) ">Collection Of Flat Icon, Symbols And Glyph Icons</text>
  <path fill="#ffffff" id="svg_3" d="m393.240003,40.960001c0,-22.619961 -18.340039,-40.96 -40.96,-40.96l-194.560001,0c-22.619961,0 -40.96,18.340039 -40.96,40.96l0,430.080002c0,22.619961 18.340039,40.96 40.96,40.96l194.560001,0c22.619961,0 40.96,-18.340039 40.96,-40.96l0,-430.080002zm-158.554719,5.12l40.958757,0c2.82967,0 5.12,2.292816 5.12,5.12c0,2.827184 -2.29033,5.12 -5.12,5.12l-40.958757,0c-2.827184,0 -5.12,-2.292816 -5.12,-5.12c0,-2.827184 2.292816,-5.12 5.12,-5.12zm18.77499,441.679536c-11.309981,0 -20.487456,-9.170019 -20.487456,-20.478757c0,-11.311223 9.177476,-20.48 20.487456,-20.48c11.309981,0 20.470058,9.170019 20.470058,20.48c0,11.308738 -9.160078,20.478757 -20.470058,20.478757zm114.179729,-57.679534l-225.280001,0l0,-343.040001l225.280001,0l0,343.040001z" stroke="null"/>
 </g>
</svg>