<svg width="512" height="512" xmlns="http://www.w3.org/2000/svg">

 <g>
  <title>background</title>
  <rect fill="none" id="canvas_background" height="102" width="102" y="-1" x="-1"/>
 </g>
 <g>
  <title>Layer 1</title>
  <g id="Layer_1"/>
  <g id="Layer_2">
   <g id="svg_1">
    <path fill="#ffffff" id="svg_2" d="m378.933,440.194c12.496,12.497 32.758,12.496 45.255,0l11.844,-11.844l11.844,-11.845c12.497,-12.496 12.497,-32.758 0,-45.255l-43.428,-43.428c-17.614,-0.019 -41.985,-12.287 -63.169,-33.47c-20.9,-20.902 -33.119,-44.902 -33.458,-62.459c-12.482,-8.75 -29.813,-7.559 -40.965,3.592l-11.844,11.844l-11.844,11.844c-11.151,11.152 -12.343,28.482 -3.592,40.965c17.556,0.34 41.557,12.558 62.458,33.459c21.183,21.183 33.452,45.554 33.471,63.169l43.428,43.428zm1.148,-13.877l53.917,-53.917c1.822,-1.822 4.776,-1.822 6.6,0.001c1.821,1.821 1.822,4.776 0,6.599l-53.917,53.917c-1.823,1.822 -4.777,1.822 -6.6,0c-1.823,-1.823 -1.823,-4.777 0,-6.6z"/>
    <path fill="#ffffff" id="svg_3" d="m245.76,240.552l2.475,-2.475l19.446,-19.445l-25.456,-25.455c0,0 -3.89,-1.061 -7.425,0.354c-3.182,2.475 -7.071,7.07 -7.071,7.07l-97.934,-97.934c0,0 -15.543,-31.099 -21.737,-38c-8.669,-6.547 -40.488,-24.224 -40.488,-24.224s-6.718,-0.354 -10.253,3.182c-1.174,1.173 -1.952,1.951 -2.476,2.475c-1.055,1.056 -1.061,1.061 -1.061,1.061c-0.523,0.523 -1.302,1.302 -2.475,2.476c-3.536,3.535 -3.182,10.253 -3.182,10.253s17.677,31.819 24.225,40.488c6.901,6.194 38,21.736 38,21.736l97.935,97.934c0,0 -4.596,3.891 -7.071,7.072c-1.414,3.535 -0.354,7.424 -0.354,7.424l25.457,25.456l19.445,-19.448z"/>
   </g>
  </g>
 </g>
</svg>